<?xml version="1.0" encoding="utf-8"?>
<!-- Generator: Adobe Illustrator 16.0.0, SVG Export Plug-In . SVG Version: 6.00 Build 0)  -->
<!DOCTYPE svg PUBLIC "-//W3C//DTD SVG 1.1//EN" "http://www.w3.org/Graphics/SVG/1.1/DTD/svg11.dtd">
<svg version="1.1" id="Layer_1" xmlns="http://www.w3.org/2000/svg" xmlns:xlink="http://www.w3.org/1999/xlink" x="0px" y="0px"
	 width="800px" height="800px" viewBox="0 0 800 800" enable-background="new 0 0 800 800" xml:space="preserve">
<g>
	<path fill="none" d="M468.767,245.343l-116.976-1.013l-58.243,92.521l-58.537-93.529l-118.47-1.029l0.035,294.829l114.559,1.043
		l0.049-93.025l62.406,99.707l62.068-98.592l0.08,93.051c0,0,97.313,0.891,113.09,1.031L468.767,245.343z"/>
	<path fill="#030000" d="M96.278,7.27v770.393l607.443-386.118L96.278,7.27z M355.658,446.256l-62.068,98.592l-62.406-99.707
		l-0.049,93.025l-114.559-1.043l-0.035-294.829l118.47,1.029l58.537,93.529l58.243-92.521l116.976,1.013l0.061,294.995
		c-15.777-0.141-113.09-1.031-113.09-1.031L355.658,446.256z"/>
</g>
</svg>
